<svg width="400" height="400" viewBox="0 0 400 400" fill="none" xmlns="http://www.w3.org/2000/svg">
<g clip-path="url(#clip0_27_41)">
<path d="M307.988 177.15C310.806 168.662 311.78 159.671 310.846 150.777C309.913 141.883 307.092 133.29 302.572 125.573C288.823 101.641 261.189 89.3302 234.201 95.115C226.728 86.8029 217.2 80.6034 206.573 77.139C195.946 73.6745 184.595 73.0673 173.659 75.3781C162.724 77.6889 152.588 82.8365 144.272 90.3038C135.955 97.7712 129.749 107.295 126.278 117.92C117.515 119.717 109.237 123.364 101.996 128.616C94.7557 133.869 88.7194 140.606 84.291 148.378C70.3924 172.273 73.548 202.413 92.0931 222.912C89.2645 231.396 88.2801 240.385 89.2055 249.279C90.1309 258.174 92.9449 266.768 97.4592 274.488C111.226 298.429 138.877 310.739 165.88 304.946C171.817 311.631 179.112 316.973 187.277 320.615C195.443 324.257 204.292 326.115 213.232 326.065C240.895 326.089 265.402 308.232 273.852 281.891C282.614 280.091 290.89 276.443 298.131 271.191C305.371 265.939 311.407 259.203 315.838 251.433C329.569 227.581 326.401 197.604 307.988 177.15ZM213.232 309.567C202.191 309.584 191.496 305.715 183.022 298.636L184.512 297.791L234.697 268.823C235.946 268.09 236.983 267.046 237.706 265.791C238.429 264.537 238.813 263.116 238.822 261.668V190.912L260.039 203.185C260.251 203.293 260.398 203.496 260.436 203.732V262.363C260.382 288.41 239.279 309.513 213.232 309.567ZM111.77 266.24C106.233 256.678 104.244 245.47 106.155 234.588L107.645 235.482L157.88 264.451C159.123 265.18 160.538 265.564 161.979 265.564C163.42 265.564 164.835 265.18 166.078 264.451L227.443 229.073V253.569C227.437 253.696 227.403 253.82 227.343 253.931C227.282 254.043 227.198 254.14 227.095 254.215L176.265 283.531C153.676 296.544 124.817 288.806 111.77 266.24ZM98.5519 156.925C104.128 147.302 112.929 139.963 123.396 136.206V195.831C123.378 197.271 123.746 198.691 124.463 199.94C125.179 201.19 126.218 202.225 127.471 202.936L188.537 238.166L167.32 250.438C167.206 250.499 167.078 250.531 166.948 250.531C166.818 250.531 166.69 250.499 166.575 250.438L115.844 221.174C93.3003 208.106 85.5692 179.27 98.5519 156.678V156.925ZM272.858 197.422L211.592 161.845L232.76 149.622C232.875 149.561 233.003 149.529 233.133 149.529C233.263 149.529 233.391 149.561 233.506 149.622L284.238 178.938C291.994 183.414 298.318 190.004 302.47 197.938C306.622 205.873 308.431 214.825 307.686 223.75C306.941 232.674 303.673 241.203 298.262 248.339C292.852 255.476 285.523 260.926 277.132 264.053V204.427C277.088 202.989 276.671 201.587 275.922 200.359C275.173 199.131 274.117 198.119 272.858 197.422ZM293.975 165.672L292.484 164.776L242.349 135.56C241.099 134.826 239.675 134.439 238.226 134.439C236.776 134.439 235.352 134.826 234.102 135.56L172.786 170.939V146.443C172.773 146.318 172.794 146.193 172.846 146.079C172.899 145.965 172.981 145.868 173.084 145.797L223.815 116.53C231.59 112.051 240.48 109.878 249.445 110.266C258.41 110.654 267.079 113.586 274.438 118.72C281.797 123.854 287.543 130.977 291.003 139.256C294.462 147.535 295.493 156.629 293.974 165.472L293.975 165.672ZM161.209 209.098L139.992 196.875C139.886 196.811 139.796 196.724 139.727 196.621C139.658 196.518 139.613 196.401 139.594 196.279V137.797C139.606 128.825 142.171 120.042 146.991 112.475C151.81 104.908 158.684 98.8689 166.809 95.0644C174.934 91.2599 183.974 89.847 192.872 90.991C201.771 92.1349 210.16 95.7884 217.058 101.524L215.567 102.369L165.383 131.337C164.134 132.07 163.098 133.115 162.375 134.369C161.652 135.623 161.267 137.044 161.259 138.492L161.209 209.098ZM172.736 184.253L200.065 168.503L227.443 184.254V215.756L200.164 231.508L172.787 215.756L172.736 184.253Z" fill="black"/>
</g>
<defs>
<clipPath id="clip0_27_41">
<rect width="250" height="252.525" fill="white" transform="translate(75 74)"/>
</clipPath>
</defs>
</svg>
